<svg width="17" height="17" viewBox="0 0 17 17" xmlns="http://www.w3.org/2000/svg">
<path d="M9.37324 11.4119L8.2377 12.4877C8.11816 12.667 7.91563 12.75 7.70312 12.75H6.375V14.0781C6.375 14.5197 6.01973 14.875 5.57812 14.875H4.25V16.2031C4.25 16.6447 3.89473 17 3.45312 17H0.796875C0.356934 17 0 16.6447 0 16.2031V13.5469C0 13.3344 0.0839707 13.1318 0.233385 12.9824L5.58809 7.62676C5.40879 7.06562 5.3125 6.46465 5.3125 5.84375C5.3125 2.61641 7.92891 0 11.1562 0C14.3836 0 17 2.61641 17 5.84375C17 9.07109 14.3836 11.6875 11.1562 11.6875C10.5354 11.6875 9.93437 11.5912 9.37324 11.4119ZM12.4844 5.84375C13.2182 5.84375 13.8125 5.24941 13.8125 4.51562C13.8125 3.78184 13.2182 3.1875 12.4844 3.1875C11.7506 3.1875 11.1562 3.78184 11.1562 4.51562C11.1562 5.24941 11.7506 5.84375 12.4844 5.84375Z"/>
</svg>
