<svg width="109" height="30" viewBox="0 0 109 30" fill="none" xmlns="http://www.w3.org/2000/svg">
<path d="M39.4688 11.0078H36.5469L36.5312 9.39844H38.9844C39.4167 9.39844 39.7708 9.34375 40.0469 9.23438C40.3229 9.11979 40.5286 8.95573 40.6641 8.74219C40.8047 8.52344 40.875 8.25781 40.875 7.94531C40.875 7.59115 40.8073 7.30469 40.6719 7.08594C40.5417 6.86719 40.3359 6.70833 40.0547 6.60938C39.7786 6.51042 39.4219 6.46094 38.9844 6.46094H37.3594V16H35.0156V4.625H38.9844C39.6458 4.625 40.237 4.6875 40.7578 4.8125C41.2839 4.9375 41.7292 5.1276 42.0938 5.38281C42.4583 5.63802 42.737 5.96094 42.9297 6.35156C43.1224 6.73698 43.2188 7.19531 43.2188 7.72656C43.2188 8.19531 43.112 8.6276 42.8984 9.02344C42.6901 9.41927 42.3594 9.74219 41.9062 9.99219C41.4583 10.2422 40.8724 10.3802 40.1484 10.4062L39.4688 11.0078ZM39.3672 16H35.9062L36.8203 14.1719H39.3672C39.7786 14.1719 40.1146 14.1068 40.375 13.9766C40.6354 13.8411 40.8281 13.6589 40.9531 13.4297C41.0781 13.2005 41.1406 12.9375 41.1406 12.6406C41.1406 12.3073 41.0833 12.0182 40.9688 11.7734C40.8594 11.5286 40.6823 11.3411 40.4375 11.2109C40.1927 11.0755 39.8698 11.0078 39.4688 11.0078H37.2109L37.2266 9.39844H40.0391L40.5781 10.0312C41.2708 10.0208 41.8281 10.1432 42.25 10.3984C42.6771 10.6484 42.987 10.974 43.1797 11.375C43.3776 11.776 43.4766 12.2057 43.4766 12.6641C43.4766 13.3932 43.3177 14.0078 43 14.5078C42.6823 15.0026 42.2161 15.375 41.6016 15.625C40.9922 15.875 40.2474 16 39.3672 16ZM52.5469 14.1719V16H46.8203V14.1719H52.5469ZM47.5781 4.625V16H45.2344V4.625H47.5781ZM56.3828 4.625V16H54.0469V4.625H56.3828ZM66.8047 14.1719V16H58.7422V14.1719H66.8047ZM66.6875 5.92969L59.7812 16H58.1328V14.6562L65.0938 4.625H66.6875V5.92969ZM65.8828 4.625V6.46094H58.1406V4.625H65.8828ZM76.5234 14.1719V16H68.4609V14.1719H76.5234ZM76.4062 5.92969L69.5 16H67.8516V14.6562L74.8125 4.625H76.4062V5.92969ZM75.6016 4.625V6.46094H67.8594V4.625H75.6016ZM82.75 6.57031L79.6562 16H77.1641L81.3906 4.625H82.9766L82.75 6.57031ZM85.3203 16L82.2188 6.57031L81.9688 4.625H83.5703L87.8203 16H85.3203ZM85.1797 11.7656V13.6016H79.1719V11.7656H85.1797ZM88.875 4.625H93.1172C93.987 4.625 94.7344 4.75521 95.3594 5.01562C95.9896 5.27604 96.474 5.66146 96.8125 6.17188C97.151 6.68229 97.3203 7.3099 97.3203 8.05469C97.3203 8.66406 97.2161 9.1875 97.0078 9.625C96.8047 10.0573 96.5156 10.4193 96.1406 10.7109C95.7708 10.9974 95.3359 11.2266 94.8359 11.3984L94.0938 11.7891H90.4062L90.3906 9.96094H93.1328C93.5443 9.96094 93.8854 9.88802 94.1562 9.74219C94.4271 9.59635 94.6302 9.39323 94.7656 9.13281C94.9062 8.8724 94.9766 8.57031 94.9766 8.22656C94.9766 7.86198 94.9089 7.54688 94.7734 7.28125C94.638 7.01562 94.4323 6.8125 94.1562 6.67188C93.8802 6.53125 93.5339 6.46094 93.1172 6.46094H91.2188V16H88.875V4.625ZM95.2344 16L92.6406 10.9297L95.1172 10.9141L97.7422 15.8906V16H95.2344ZM102.617 16H100.141L100.156 14.1719H102.617C103.232 14.1719 103.75 14.0339 104.172 13.7578C104.594 13.4766 104.911 13.0677 105.125 12.5312C105.344 11.9948 105.453 11.3464 105.453 10.5859V10.0312C105.453 9.44792 105.391 8.9349 105.266 8.49219C105.146 8.04948 104.966 7.67708 104.727 7.375C104.487 7.07292 104.193 6.84635 103.844 6.69531C103.495 6.53906 103.094 6.46094 102.641 6.46094H100.094V4.625H102.641C103.401 4.625 104.096 4.75521 104.727 5.01562C105.362 5.27083 105.911 5.63802 106.375 6.11719C106.839 6.59635 107.195 7.16927 107.445 7.83594C107.701 8.4974 107.828 9.23438 107.828 10.0469V10.5859C107.828 11.3932 107.701 12.1302 107.445 12.7969C107.195 13.4635 106.839 14.0365 106.375 14.5156C105.917 14.9896 105.367 15.3568 104.727 15.6172C104.091 15.8724 103.388 16 102.617 16ZM101.469 4.625V16H99.125V4.625H101.469Z"/>
<path d="M37.3203 24.1045H35.2939V23.5918H37.3203C37.7435 23.5918 38.0869 23.5234 38.3506 23.3867C38.6175 23.2467 38.8112 23.0579 38.9316 22.8203C39.0553 22.5827 39.1172 22.3158 39.1172 22.0195C39.1172 21.7298 39.0553 21.4629 38.9316 21.2188C38.8112 20.9746 38.6175 20.7793 38.3506 20.6328C38.0869 20.4831 37.7435 20.4082 37.3203 20.4082H35.5039V27H34.9033V19.8906H37.3203C37.8411 19.8906 38.279 19.9801 38.6338 20.1592C38.9919 20.3382 39.262 20.5872 39.4443 20.9062C39.6266 21.2253 39.7178 21.5931 39.7178 22.0098C39.7178 22.446 39.6266 22.8219 39.4443 23.1377C39.262 23.4502 38.9935 23.6895 38.6387 23.8555C38.2839 24.0215 37.8444 24.1045 37.3203 24.1045ZM46.3145 23.0645V23.8262C46.3145 24.3242 46.2493 24.7751 46.1191 25.1787C45.9922 25.5791 45.8066 25.9225 45.5625 26.209C45.3216 26.4954 45.0319 26.7152 44.6934 26.8682C44.3548 27.0212 43.974 27.0977 43.5508 27.0977C43.1374 27.0977 42.7598 27.0212 42.418 26.8682C42.0794 26.7152 41.7881 26.4954 41.5439 26.209C41.2998 25.9225 41.111 25.5791 40.9775 25.1787C40.8441 24.7751 40.7773 24.3242 40.7773 23.8262V23.0645C40.7773 22.5664 40.8424 22.1172 40.9727 21.7168C41.1061 21.3132 41.2949 20.9681 41.5391 20.6816C41.7832 20.3952 42.0745 20.1755 42.4131 20.0225C42.7516 19.8695 43.1276 19.793 43.541 19.793C43.9642 19.793 44.3451 19.8695 44.6836 20.0225C45.0221 20.1755 45.3135 20.3952 45.5576 20.6816C45.8018 20.9681 45.9889 21.3132 46.1191 21.7168C46.2493 22.1172 46.3145 22.5664 46.3145 23.0645ZM45.7188 23.8262V23.0547C45.7188 22.6348 45.6699 22.2572 45.5723 21.9219C45.4779 21.5866 45.3363 21.3001 45.1475 21.0625C44.9619 20.8249 44.734 20.6426 44.4639 20.5156C44.1937 20.3887 43.8861 20.3252 43.541 20.3252C43.2057 20.3252 42.9046 20.3887 42.6377 20.5156C42.3708 20.6426 42.1429 20.8249 41.9541 21.0625C41.7686 21.3001 41.6253 21.5866 41.5244 21.9219C41.4268 22.2572 41.3779 22.6348 41.3779 23.0547V23.8262C41.3779 24.2493 41.4268 24.6302 41.5244 24.9688C41.6253 25.304 41.7702 25.5921 41.959 25.833C42.1478 26.0706 42.3757 26.2529 42.6426 26.3799C42.9128 26.5068 43.2155 26.5703 43.5508 26.5703C43.8991 26.5703 44.2067 26.5068 44.4736 26.3799C44.7406 26.2529 44.9668 26.0706 45.1523 25.833C45.3379 25.5921 45.4779 25.304 45.5723 24.9688C45.6699 24.6302 45.7188 24.2493 45.7188 23.8262ZM51.8564 25.252C51.8564 25.0566 51.8239 24.8825 51.7588 24.7295C51.6937 24.5765 51.5863 24.4398 51.4365 24.3193C51.29 24.1956 51.0915 24.0817 50.8408 23.9775C50.5934 23.8701 50.2842 23.7643 49.9131 23.6602C49.5583 23.5592 49.2376 23.4486 48.9512 23.3281C48.6647 23.2077 48.4189 23.0693 48.2139 22.9131C48.012 22.7568 47.8574 22.5745 47.75 22.3662C47.6426 22.1546 47.5889 21.9089 47.5889 21.6289C47.5889 21.3555 47.6475 21.1064 47.7646 20.8818C47.8818 20.6572 48.0462 20.4635 48.2578 20.3008C48.4727 20.138 48.7249 20.0127 49.0146 19.9248C49.3076 19.8369 49.6283 19.793 49.9766 19.793C50.4746 19.793 50.9043 19.8874 51.2656 20.0762C51.6302 20.265 51.9118 20.5205 52.1104 20.8428C52.3122 21.1618 52.4131 21.5199 52.4131 21.917H51.8125C51.8125 21.6077 51.7393 21.3327 51.5928 21.0918C51.4495 20.8477 51.2412 20.6572 50.9678 20.5205C50.6976 20.3805 50.3672 20.3105 49.9766 20.3105C49.5859 20.3105 49.2572 20.3708 48.9902 20.4912C48.7266 20.6084 48.5264 20.7663 48.3896 20.9648C48.2562 21.1602 48.1895 21.3783 48.1895 21.6191C48.1895 21.7884 48.222 21.9447 48.2871 22.0879C48.3522 22.2279 48.458 22.3597 48.6045 22.4834C48.7542 22.6038 48.9512 22.7178 49.1953 22.8252C49.4395 22.9294 49.7406 23.0286 50.0986 23.123C50.4762 23.2272 50.8115 23.3428 51.1045 23.4697C51.3975 23.5967 51.6449 23.7432 51.8467 23.9092C52.0485 24.0719 52.2015 24.2624 52.3057 24.4805C52.4098 24.6986 52.4619 24.9525 52.4619 25.2422C52.4619 25.5319 52.4001 25.7923 52.2764 26.0234C52.1559 26.2513 51.985 26.445 51.7637 26.6045C51.5456 26.764 51.2868 26.8861 50.9873 26.9707C50.6911 27.0553 50.3672 27.0977 50.0156 27.0977C49.6999 27.0977 49.3857 27.057 49.0732 26.9756C48.7607 26.8942 48.4743 26.7689 48.2139 26.5996C47.9567 26.4271 47.75 26.2057 47.5938 25.9355C47.4408 25.6654 47.3643 25.3431 47.3643 24.9688H47.96C47.96 25.2682 48.0202 25.5205 48.1406 25.7256C48.2611 25.9307 48.4206 26.0967 48.6191 26.2236C48.821 26.3506 49.0423 26.4434 49.2832 26.502C49.5273 26.5573 49.7715 26.585 50.0156 26.585C50.39 26.585 50.7139 26.5296 50.9873 26.4189C51.264 26.3083 51.4772 26.1536 51.627 25.9551C51.7799 25.7533 51.8564 25.5189 51.8564 25.252ZM60.2256 25.252C60.2256 25.0566 60.193 24.8825 60.1279 24.7295C60.0628 24.5765 59.9554 24.4398 59.8057 24.3193C59.6592 24.1956 59.4606 24.0817 59.21 23.9775C58.9626 23.8701 58.6533 23.7643 58.2822 23.6602C57.9274 23.5592 57.6068 23.4486 57.3203 23.3281C57.0339 23.2077 56.7881 23.0693 56.583 22.9131C56.3812 22.7568 56.2266 22.5745 56.1191 22.3662C56.0117 22.1546 55.958 21.9089 55.958 21.6289C55.958 21.3555 56.0166 21.1064 56.1338 20.8818C56.251 20.6572 56.4154 20.4635 56.627 20.3008C56.8418 20.138 57.0941 20.0127 57.3838 19.9248C57.6768 19.8369 57.9974 19.793 58.3457 19.793C58.8438 19.793 59.2734 19.8874 59.6348 20.0762C59.9993 20.265 60.2809 20.5205 60.4795 20.8428C60.6813 21.1618 60.7822 21.5199 60.7822 21.917H60.1816C60.1816 21.6077 60.1084 21.3327 59.9619 21.0918C59.8187 20.8477 59.6104 20.6572 59.3369 20.5205C59.0667 20.3805 58.7363 20.3105 58.3457 20.3105C57.9551 20.3105 57.6263 20.3708 57.3594 20.4912C57.0957 20.6084 56.8955 20.7663 56.7588 20.9648C56.6253 21.1602 56.5586 21.3783 56.5586 21.6191C56.5586 21.7884 56.5911 21.9447 56.6562 22.0879C56.7214 22.2279 56.8271 22.3597 56.9736 22.4834C57.1234 22.6038 57.3203 22.7178 57.5645 22.8252C57.8086 22.9294 58.1097 23.0286 58.4678 23.123C58.8454 23.2272 59.1807 23.3428 59.4736 23.4697C59.7666 23.5967 60.014 23.7432 60.2158 23.9092C60.4176 24.0719 60.5706 24.2624 60.6748 24.4805C60.779 24.6986 60.8311 24.9525 60.8311 25.2422C60.8311 25.5319 60.7692 25.7923 60.6455 26.0234C60.5251 26.2513 60.3542 26.445 60.1328 26.6045C59.9147 26.764 59.6559 26.8861 59.3564 26.9707C59.0602 27.0553 58.7363 27.0977 58.3848 27.0977C58.069 27.0977 57.7549 27.057 57.4424 26.9756C57.1299 26.8942 56.8434 26.7689 56.583 26.5996C56.3258 26.4271 56.1191 26.2057 55.9629 25.9355C55.8099 25.6654 55.7334 25.3431 55.7334 24.9688H56.3291C56.3291 25.2682 56.3893 25.5205 56.5098 25.7256C56.6302 25.9307 56.7897 26.0967 56.9883 26.2236C57.1901 26.3506 57.4115 26.4434 57.6523 26.502C57.8965 26.5573 58.1406 26.585 58.3848 26.585C58.7591 26.585 59.083 26.5296 59.3564 26.4189C59.6331 26.3083 59.8464 26.1536 59.9961 25.9551C60.1491 25.7533 60.2256 25.5189 60.2256 25.252ZM63.5605 26.4727L65.2061 21.7168H65.8359L63.5996 27.8496C63.554 27.9701 63.4954 28.1035 63.4238 28.25C63.3555 28.3965 63.2643 28.5365 63.1504 28.6699C63.0397 28.8066 62.8997 28.9173 62.7305 29.002C62.5645 29.0898 62.361 29.1338 62.1201 29.1338C62.0583 29.1338 61.9785 29.1257 61.8809 29.1094C61.7865 29.0964 61.7181 29.0833 61.6758 29.0703L61.6709 28.5771C61.7067 28.5869 61.7588 28.5951 61.8271 28.6016C61.8955 28.6081 61.9427 28.6113 61.9688 28.6113C62.1803 28.6113 62.3577 28.5755 62.501 28.5039C62.6475 28.4323 62.7695 28.3249 62.8672 28.1816C62.9648 28.0417 63.0511 27.8659 63.126 27.6543L63.5605 26.4727ZM62.0225 21.7168L63.707 26.2529L63.8633 26.8633L63.4385 27.1025L61.3877 21.7168H62.0225ZM69.9131 25.6523C69.9131 25.5091 69.8773 25.3675 69.8057 25.2275C69.734 25.0876 69.5957 24.959 69.3906 24.8418C69.1888 24.7246 68.891 24.6253 68.4971 24.5439C68.2041 24.4788 67.9421 24.4056 67.7109 24.3242C67.4831 24.2428 67.291 24.1452 67.1348 24.0312C66.9785 23.9173 66.8597 23.7806 66.7783 23.6211C66.6969 23.4616 66.6562 23.2728 66.6562 23.0547C66.6562 22.8594 66.6986 22.6755 66.7832 22.5029C66.8711 22.3271 66.9948 22.1742 67.1543 22.0439C67.3171 21.9105 67.5124 21.8063 67.7402 21.7314C67.9714 21.6566 68.2301 21.6191 68.5166 21.6191C68.9235 21.6191 69.2718 21.6891 69.5615 21.8291C69.8545 21.9658 70.0775 22.153 70.2305 22.3906C70.3867 22.6283 70.4648 22.8968 70.4648 23.1963H69.8838C69.8838 23.014 69.8301 22.8415 69.7227 22.6787C69.6185 22.516 69.4639 22.3825 69.2588 22.2783C69.057 22.1742 68.8096 22.1221 68.5166 22.1221C68.2139 22.1221 67.9681 22.1676 67.7793 22.2588C67.5905 22.3499 67.4521 22.4655 67.3643 22.6055C67.2796 22.7454 67.2373 22.8903 67.2373 23.04C67.2373 23.1572 67.2552 23.2646 67.291 23.3623C67.3301 23.4567 67.3984 23.5446 67.4961 23.626C67.597 23.7074 67.7402 23.7839 67.9258 23.8555C68.1113 23.9271 68.3522 23.9971 68.6484 24.0654C69.0749 24.1598 69.4232 24.2754 69.6934 24.4121C69.9668 24.5456 70.1686 24.7116 70.2988 24.9102C70.429 25.1055 70.4941 25.3431 70.4941 25.623C70.4941 25.8411 70.4486 26.0413 70.3574 26.2236C70.2663 26.4027 70.1344 26.5573 69.9619 26.6875C69.7926 26.8177 69.5876 26.9186 69.3467 26.9902C69.109 27.0618 68.8421 27.0977 68.5459 27.0977C68.0999 27.0977 67.7223 27.0244 67.4131 26.8779C67.1071 26.7282 66.8743 26.5329 66.7148 26.292C66.5586 26.0479 66.4805 25.7891 66.4805 25.5156H67.0615C67.0811 25.7891 67.1673 26.0055 67.3203 26.165C67.4733 26.3213 67.6605 26.432 67.8818 26.4971C68.1064 26.5622 68.3278 26.5947 68.5459 26.5947C68.8454 26.5947 69.096 26.5508 69.2979 26.4629C69.4997 26.375 69.6527 26.2594 69.7568 26.1162C69.861 25.973 69.9131 25.8184 69.9131 25.6523ZM73.8145 21.7168V22.1953H71.168V21.7168H73.8145ZM72.1396 20.3594H72.7207V25.7158C72.7207 25.96 72.7533 26.1439 72.8184 26.2676C72.8835 26.3913 72.9681 26.4743 73.0723 26.5166C73.1764 26.5589 73.2887 26.5801 73.4092 26.5801C73.4971 26.5801 73.5817 26.5752 73.6631 26.5654C73.7445 26.5524 73.8177 26.5394 73.8828 26.5264L73.9072 27.0195C73.8356 27.0423 73.7428 27.0602 73.6289 27.0732C73.515 27.0895 73.401 27.0977 73.2871 27.0977C73.0625 27.0977 72.8639 27.057 72.6914 26.9756C72.5189 26.891 72.3838 26.7477 72.2861 26.5459C72.1885 26.3408 72.1396 26.0625 72.1396 25.7109V20.3594ZM77.0811 27.0977C76.736 27.0977 76.4186 27.0342 76.1289 26.9072C75.8424 26.7803 75.5918 26.6012 75.377 26.3701C75.1654 26.139 75.001 25.8656 74.8838 25.5498C74.7699 25.2308 74.7129 24.8825 74.7129 24.5049V24.2949C74.7129 23.888 74.7731 23.5202 74.8936 23.1914C75.014 22.8626 75.18 22.5811 75.3916 22.3467C75.6032 22.1123 75.8441 21.9333 76.1143 21.8096C76.3877 21.6826 76.6742 21.6191 76.9736 21.6191C77.3089 21.6191 77.6068 21.6794 77.8672 21.7998C78.1276 21.917 78.3457 22.0846 78.5215 22.3027C78.7005 22.5176 78.8356 22.7731 78.9268 23.0693C79.0179 23.3623 79.0635 23.6862 79.0635 24.041V24.3975H75.0645V23.8994H78.4824V23.8311C78.4759 23.5348 78.4157 23.2581 78.3018 23.001C78.1911 22.7406 78.0251 22.529 77.8037 22.3662C77.5824 22.2035 77.3057 22.1221 76.9736 22.1221C76.7262 22.1221 76.4984 22.1742 76.29 22.2783C76.085 22.3825 75.9076 22.5322 75.7578 22.7275C75.6113 22.9196 75.4974 23.1491 75.416 23.416C75.3379 23.6797 75.2988 23.9727 75.2988 24.2949V24.5049C75.2988 24.7979 75.3411 25.0713 75.4258 25.3252C75.5137 25.5758 75.6374 25.7972 75.7969 25.9893C75.9596 26.1813 76.1517 26.3311 76.373 26.4385C76.5944 26.5459 76.8385 26.5996 77.1055 26.5996C77.418 26.5996 77.6947 26.5426 77.9355 26.4287C78.1764 26.3115 78.3929 26.1276 78.585 25.877L78.9512 26.1602C78.8372 26.3294 78.694 26.4857 78.5215 26.6289C78.3522 26.7721 78.1488 26.8861 77.9111 26.9707C77.6735 27.0553 77.3968 27.0977 77.0811 27.0977ZM80.7676 22.8105V27H80.1816V21.7168H80.7432L80.7676 22.8105ZM80.6602 24.0312L80.377 23.8848C80.3965 23.5723 80.4551 23.2793 80.5527 23.0059C80.6536 22.7324 80.7936 22.4915 80.9727 22.2832C81.1517 22.0749 81.3665 21.9121 81.6172 21.7949C81.8678 21.6777 82.1527 21.6191 82.4717 21.6191C82.7288 21.6191 82.9616 21.6549 83.1699 21.7266C83.3815 21.7949 83.5605 21.904 83.707 22.0537C83.8568 22.2002 83.9723 22.3923 84.0537 22.6299C84.1351 22.8675 84.1758 23.1523 84.1758 23.4844V27H83.5947V23.5039C83.5947 23.1523 83.5394 22.8773 83.4287 22.6787C83.3213 22.4801 83.1699 22.3385 82.9746 22.2539C82.7826 22.1693 82.5596 22.127 82.3057 22.127C82.0062 22.127 81.7523 22.1888 81.5439 22.3125C81.3389 22.4329 81.1712 22.5908 81.041 22.7861C80.9141 22.9782 80.8197 23.1849 80.7578 23.4062C80.696 23.6243 80.6634 23.8327 80.6602 24.0312ZM84.1709 23.5723L83.7803 23.582C83.7965 23.3249 83.8551 23.0791 83.9561 22.8447C84.0602 22.6104 84.2018 22.402 84.3809 22.2197C84.5599 22.0342 84.7731 21.8877 85.0205 21.7803C85.2712 21.6729 85.5527 21.6191 85.8652 21.6191C86.1387 21.6191 86.3828 21.6566 86.5977 21.7314C86.8125 21.8031 86.9932 21.9186 87.1396 22.0781C87.2894 22.2344 87.4033 22.4346 87.4814 22.6787C87.5596 22.9229 87.5986 23.2158 87.5986 23.5576V27H87.0127V23.5527C87.0127 23.1784 86.9574 22.8887 86.8467 22.6836C86.7393 22.4753 86.5895 22.3304 86.3975 22.249C86.2054 22.1676 85.9808 22.127 85.7236 22.127C85.4697 22.1302 85.2467 22.1774 85.0547 22.2686C84.8626 22.3564 84.7015 22.4736 84.5713 22.6201C84.4443 22.7633 84.3467 22.918 84.2783 23.084C84.2132 23.25 84.1774 23.4128 84.1709 23.5723Z" />
<path d="M26.1963 5.8916H3.80363C3.5963 5.8916 3.42815 6.06008 3.42815 6.26708V20.1744C3.42815 20.382 3.59641 20.5502 3.80363 20.5502H26.1965C26.4035 20.5502 26.5723 20.382 26.5723 20.1744V6.26719C26.5721 6.05986 26.4036 5.8916 26.1963 5.8916ZM24.9775 18.9556H5.02235V7.48613H24.9775V18.9556Z" />
<path d="M26.1963 2.46326H3.80363C1.70581 2.46326 0 4.1696 0 6.26721V20.1745C0 22.2721 1.70635 23.9784 3.80363 23.9784H10.6361V25.9425H7.98392C7.54362 25.9425 7.18671 26.2991 7.18671 26.7397C7.18671 27.1798 7.54362 27.5369 7.98392 27.5369H10.6359H19.3642H22.0162C22.4568 27.5369 22.8134 27.1798 22.8134 26.7397C22.8134 26.2991 22.4568 25.9425 22.0162 25.9425H19.3642V23.9784H26.1964C28.294 23.9784 30 22.2717 30 20.1745V6.26721C30.0002 4.1696 28.2937 2.46326 26.1963 2.46326ZM26.1966 22.3839H17.7697V25.9425H12.2306V22.3839H3.80363C2.58544 22.3839 1.59442 21.3927 1.59442 20.1745V6.26721C1.59442 5.04902 2.58544 4.05779 3.80363 4.05779H26.1965C27.4147 4.05779 28.4057 5.04902 28.4057 6.26721C28.4058 6.26721 28.4058 20.1745 28.4058 20.1745C28.4058 21.3927 27.4148 22.3839 26.1966 22.3839Z" />
<path d="M17.709 13.5189L16.7831 13.9258L16.3799 13.6836V12.3164L16.7831 12.0742L17.709 12.4811C17.7249 12.4885 17.7422 12.491 17.7581 12.491C17.8049 12.491 17.8504 12.4639 17.8713 12.4172C17.8983 12.3545 17.87 12.282 17.8086 12.2549L17.0426 11.918L17.5713 11.6008C17.629 11.5664 17.6487 11.4902 17.6131 11.4324C17.5786 11.3746 17.5024 11.3549 17.4446 11.3906L16.8999 11.7176L16.9872 10.8877C16.9946 10.8201 16.9454 10.7598 16.8778 10.7525C16.8102 10.7451 16.7499 10.7943 16.7426 10.8619L16.6356 11.8762L16.2299 12.1197C16.027 12.0102 15.8229 11.907 15.6237 11.8061C15.459 11.7225 15.2893 11.6365 15.1233 11.548V10.9344L15.9508 10.343C16.0061 10.3037 16.0184 10.2262 15.979 10.1709C15.9397 10.1156 15.8622 10.1033 15.8081 10.1426L15.1233 10.632V10.123C15.1233 10.0553 15.068 10 15.0004 10C14.9327 10 14.8774 10.0553 14.8774 10.123V10.6381L14.1938 10.1439C14.1385 10.1045 14.0622 10.1168 14.0217 10.1709C13.9823 10.2262 13.9946 10.3025 14.0487 10.343L14.8762 10.9418V11.5467C14.7163 11.6291 14.554 11.7053 14.3967 11.7791C14.1827 11.8799 13.9614 11.9844 13.7438 12.1025L13.3651 11.875L13.2581 10.8607C13.2508 10.793 13.1905 10.7439 13.1229 10.7512C13.0553 10.7586 13.0061 10.8189 13.0135 10.8865L13.1008 11.7164L12.5561 11.3893C12.4983 11.3549 12.4221 11.3734 12.3877 11.4311C12.3532 11.4889 12.3717 11.5652 12.4295 11.5996L12.9581 11.9168L12.1922 12.2537C12.1295 12.2807 12.1012 12.3533 12.1295 12.416C12.1491 12.4615 12.1946 12.4898 12.2426 12.4898C12.2586 12.4898 12.2758 12.4861 12.2918 12.4799L13.2176 12.073L13.6208 12.3152V13.6824L13.2176 13.9246L12.2918 13.5176C12.229 13.4906 12.1565 13.5189 12.1295 13.5803C12.1024 13.643 12.1307 13.7156 12.1922 13.7426L12.9581 14.0795L12.4295 14.3967C12.3717 14.4311 12.352 14.5074 12.3877 14.5652C12.411 14.6033 12.4516 14.6254 12.4934 14.6254C12.5155 14.6254 12.5364 14.6193 12.5561 14.6082L13.1008 14.2811L13.0135 15.1111C13.0061 15.1787 13.0553 15.2389 13.1229 15.2463C13.1278 15.2463 13.1315 15.2475 13.1364 15.2475C13.1991 15.2475 13.252 15.2008 13.2581 15.1369L13.3651 14.1225L13.7524 13.8902C13.9479 13.9959 14.1458 14.0918 14.3389 14.184C14.5147 14.2689 14.6967 14.3549 14.8762 14.4508V15.0668L14.0487 15.6557C13.9934 15.6951 13.9799 15.7713 14.0192 15.8266C14.0586 15.882 14.1348 15.8955 14.1901 15.8561L14.8749 15.3693V15.877C14.8749 15.9447 14.9303 16 14.9979 16C15.0655 16 15.1208 15.9447 15.1208 15.877V15.3754L15.8057 15.8574C15.8266 15.8721 15.8524 15.8795 15.8758 15.8795C15.9139 15.8795 15.952 15.8611 15.9766 15.8279C16.0159 15.7725 16.0024 15.6951 15.9471 15.657L15.1208 15.0754V14.4508C15.3213 14.3402 15.5278 14.2344 15.7282 14.1311C15.8893 14.0488 16.054 13.9639 16.2188 13.8754L16.6331 14.1238L16.7401 15.1381C16.7463 15.2008 16.8004 15.2488 16.8618 15.2488C16.8655 15.2488 16.8704 15.2488 16.8754 15.2475C16.943 15.2402 16.9922 15.1799 16.9848 15.1123L16.8975 14.2824L17.4422 14.6094C17.4618 14.6217 17.484 14.6266 17.5049 14.6266C17.5467 14.6266 17.5872 14.6057 17.6106 14.5664C17.645 14.5086 17.6266 14.4324 17.5688 14.398L17.0401 14.0807L17.8061 13.7439C17.8688 13.7168 17.8971 13.6443 17.8688 13.5816C17.8442 13.5201 17.7717 13.4918 17.709 13.5189ZM13.8692 12.4639L14.7631 13L13.8692 13.5361V12.4639ZM14.8786 14.1742C14.7336 14.0992 14.5885 14.0303 14.4471 13.9627C14.2995 13.8926 14.1495 13.8201 14.0008 13.7439L14.8786 13.2176V14.1742ZM14.8786 12.7824L13.9922 12.25C14.1618 12.1615 14.3352 12.0803 14.5036 12.0004C14.6266 11.9426 14.7532 11.8836 14.8786 11.8209V12.7824ZM15.1245 11.8258C15.2549 11.8934 15.3852 11.9598 15.5143 12.025C15.6692 12.1037 15.8266 12.1836 15.9852 12.2672L15.1245 12.7836V11.8258V11.8258ZM15.6188 13.9123C15.4565 13.9959 15.2893 14.082 15.1245 14.1705V13.2164L15.9754 13.7266C15.8561 13.7906 15.7368 13.852 15.6188 13.9123ZM16.134 13.5361L15.2401 13L16.134 12.4639V13.5361Z" />
</svg>
