<svg width="25" height="25" viewBox="0 0 25 25" fill="none" xmlns="http://www.w3.org/2000/svg">
<path d="M12.6423 0.00812531C5.86148 0.00812531 0.36586 5.50374 0.36586 12.2845C0.36586 19.0654 5.86148 24.561 12.6423 24.561C19.4231 24.561 24.9187 19.0654 24.9187 12.2845C24.9187 5.50374 19.4231 0.00812531 12.6423 0.00812531ZM12.6423 6.14634C14.5494 6.14634 16.095 7.6924 16.095 9.59908C16.095 11.5058 14.5509 13.0518 12.6423 13.0518C10.7356 13.0518 9.18954 11.5058 9.18954 9.59908C9.18954 7.6924 10.7337 6.14634 12.6423 6.14634ZM12.6423 21.4919C10.104 21.4919 7.80365 20.4594 6.13482 18.7925C6.91169 16.7875 8.82988 15.3537 11.1077 15.3537H14.1768C16.4566 15.3537 18.3748 16.7865 19.1497 18.7925C17.4809 20.4608 15.1791 21.4919 12.6423 21.4919Z" fill="#DEE2E6"/>
</svg>
